<mxfile host="app.diagrams.net" agent="Mozilla/5.0 (Macintosh; Intel Mac OS X 10_15_7) AppleWebKit/537.36 (KHTML, like Gecko) Chrome/132.0.0.0 Safari/537.36" version="26.0.10">
  <diagram name="Page-1" id="xgLDYGTKeG5dWzgxfZOF">
    <mxGraphModel dx="1418" dy="745" grid="1" gridSize="10" guides="1" tooltips="1" connect="1" arrows="1" fold="1" page="1" pageScale="1" pageWidth="850" pageHeight="1100" math="0" shadow="0">
      <root>
        <mxCell id="0" />
        <mxCell id="1" parent="0" />
        <mxCell id="jk4p9Svcggz5Eupu6zsi-1" value="FastAPI Backend" style="rounded=0;whiteSpace=wrap;html=1;" vertex="1" parent="1">
          <mxGeometry x="190" y="300" width="120" height="60" as="geometry" />
        </mxCell>
        <mxCell id="jk4p9Svcggz5Eupu6zsi-2" value="ReactJS Frontend" style="rounded=0;whiteSpace=wrap;html=1;" vertex="1" parent="1">
          <mxGeometry x="385" y="300" width="120" height="60" as="geometry" />
        </mxCell>
        <mxCell id="jk4p9Svcggz5Eupu6zsi-3" value="PostGRESQL Database" style="rounded=0;whiteSpace=wrap;html=1;" vertex="1" parent="1">
          <mxGeometry x="560" y="300" width="120" height="60" as="geometry" />
        </mxCell>
        <mxCell id="jk4p9Svcggz5Eupu6zsi-10" style="edgeStyle=orthogonalEdgeStyle;rounded=0;orthogonalLoop=1;jettySize=auto;html=1;exitX=0.5;exitY=1;exitDx=0;exitDy=0;entryX=0.5;entryY=0;entryDx=0;entryDy=0;" edge="1" parent="1" source="jk4p9Svcggz5Eupu6zsi-5" target="jk4p9Svcggz5Eupu6zsi-1">
          <mxGeometry relative="1" as="geometry" />
        </mxCell>
        <mxCell id="jk4p9Svcggz5Eupu6zsi-5" value="Dentalxchange API" style="rounded=0;whiteSpace=wrap;html=1;" vertex="1" parent="1">
          <mxGeometry x="40" y="50" width="120" height="60" as="geometry" />
        </mxCell>
        <mxCell id="jk4p9Svcggz5Eupu6zsi-6" value="Plaid API" style="rounded=0;whiteSpace=wrap;html=1;" vertex="1" parent="1">
          <mxGeometry x="220" y="50" width="120" height="60" as="geometry" />
        </mxCell>
        <mxCell id="jk4p9Svcggz5Eupu6zsi-12" style="edgeStyle=orthogonalEdgeStyle;rounded=0;orthogonalLoop=1;jettySize=auto;html=1;exitX=0.5;exitY=1;exitDx=0;exitDy=0;entryX=0.5;entryY=0;entryDx=0;entryDy=0;" edge="1" parent="1" source="jk4p9Svcggz5Eupu6zsi-7" target="jk4p9Svcggz5Eupu6zsi-1">
          <mxGeometry relative="1" as="geometry" />
        </mxCell>
        <mxCell id="jk4p9Svcggz5Eupu6zsi-7" value="Carestack API" style="rounded=0;whiteSpace=wrap;html=1;" vertex="1" parent="1">
          <mxGeometry x="370" y="50" width="120" height="60" as="geometry" />
        </mxCell>
        <mxCell id="jk4p9Svcggz5Eupu6zsi-8" value="OCR Processing Module" style="rounded=0;whiteSpace=wrap;html=1;" vertex="1" parent="1">
          <mxGeometry x="520" y="50" width="120" height="60" as="geometry" />
        </mxCell>
        <mxCell id="jk4p9Svcggz5Eupu6zsi-9" value="AI Diagnostics Module" style="rounded=0;whiteSpace=wrap;html=1;" vertex="1" parent="1">
          <mxGeometry x="670" y="50" width="120" height="60" as="geometry" />
        </mxCell>
        <mxCell id="jk4p9Svcggz5Eupu6zsi-11" style="edgeStyle=orthogonalEdgeStyle;rounded=0;orthogonalLoop=1;jettySize=auto;html=1;exitX=0.5;exitY=0;exitDx=0;exitDy=0;entryX=0.558;entryY=1.05;entryDx=0;entryDy=0;entryPerimeter=0;" edge="1" parent="1" source="jk4p9Svcggz5Eupu6zsi-2" target="jk4p9Svcggz5Eupu6zsi-6">
          <mxGeometry relative="1" as="geometry" />
        </mxCell>
      </root>
    </mxGraphModel>
  </diagram>
</mxfile>
